<?xml version="1.0" standalone="no"?>
<!DOCTYPE svg PUBLIC "-//W3C//DTD SVG 20010904//EN"
 "http://www.w3.org/TR/2001/REC-SVG-20010904/DTD/svg10.dtd">
<svg version="1.0" xmlns="http://www.w3.org/2000/svg"
 width="300.000000pt" height="300.000000pt" viewBox="0 0 300.000000 300.000000"
 preserveAspectRatio="xMidYMid meet">
<metadata>
Created by potrace 1.11, written by Peter Selinger 2001-2013
</metadata>
<g transform="translate(0.000000,300.000000) scale(0.100000,-0.100000)"
fill="#000000" stroke="none">
<path d="M2134 2922 c-346 -238 -614 -533 -778 -860 -20 -40 -38 -72 -40 -72
-2 0 -41 64 -85 143 -45 78 -111 183 -148 232 -63 86 -372 405 -392 405 -16 0
-24 -146 -18 -330 8 -242 50 -433 141 -642 9 -21 14 -38 12 -38 -3 0 -58 20
-123 44 -260 96 -452 146 -611 159 l-52 4 51 -96 c68 -128 100 -170 211 -277
118 -113 310 -253 498 -362 10 -6 -22 -27 -116 -76 -136 -69 -240 -145 -302
-216 -25 -30 -32 -44 -23 -49 25 -16 219 -33 361 -32 146 0 227 8 353 34 l68
15 -27 -47 c-48 -83 -132 -205 -197 -286 -81 -100 -253 -267 -341 -330 -65
-46 -162 -85 -212 -85 -13 0 -33 -9 -45 -21 -17 -17 -20 -28 -14 -57 3 -21 13
-48 22 -61 33 -52 167 -7 311 106 172 134 317 302 507 587 l79 119 13 -29 c6
-16 26 -62 43 -103 41 -95 108 -208 170 -287 51 -64 225 -234 239 -234 20 0
28 318 11 475 -4 44 -7 81 -6 82 1 1 49 -22 108 -52 125 -64 277 -118 403
-141 92 -16 515 -33 515 -20 0 4 -54 71 -119 149 -124 148 -220 237 -406 377
-60 45 -111 83 -113 85 -2 1 32 10 75 20 198 43 442 142 589 237 83 54 224
166 224 178 0 12 -54 27 -200 53 -112 20 -158 22 -453 22 -180 0 -327 1 -327
2 0 1 18 34 39 75 92 169 176 402 217 593 32 150 43 418 24 574 -7 56 -15 103
-19 105 -3 2 -56 -30 -117 -72z m-724 -1111 c0 -22 -6 -30 -24 -35 -34 -8 -46
-52 -46 -163 0 -98 -8 -127 -44 -155 -19 -16 -20 -17 -3 -24 33 -12 47 -58 47
-152 0 -122 7 -151 41 -171 18 -10 29 -24 29 -38 0 -35 -51 -31 -92 6 l-33 29
-6 126 c-6 132 -18 168 -59 181 -31 10 -25 47 13 70 38 24 46 56 46 191 1 78
4 95 22 118 24 30 51 44 87 45 18 1 22 -4 22 -28z m140 14 c47 -24 60 -61 60
-173 0 -114 12 -160 46 -172 33 -13 33 -56 0 -72 -14 -6 -28 -18 -32 -27 -4
-9 -10 -74 -13 -144 l-6 -129 -33 -29 c-22 -20 -43 -29 -67 -29 -31 0 -35 3
-35 25 0 18 7 26 25 31 39 10 48 39 55 173 6 121 7 125 33 145 l27 20 -27 22
c-26 21 -28 26 -33 147 -7 131 -13 151 -57 168 -16 6 -23 17 -23 34 0 20 5 25
25 25 15 0 39 -7 55 -15z"/>
</g>
</svg>
